<mxfile host="65bd71144e">
    <diagram id="KqGvIRFhO_OHiRRsd4W4" name="Page-1">
        <mxGraphModel dx="1494" dy="928" grid="1" gridSize="10" guides="1" tooltips="1" connect="1" arrows="1" fold="1" page="1" pageScale="1" pageWidth="827" pageHeight="1169" math="0" shadow="0">
            <root>
                <mxCell id="0"/>
                <mxCell id="1" parent="0"/>
                <mxCell id="2" value="" style="sketch=0;points=[[0,0,0],[0.25,0,0],[0.5,0,0],[0.75,0,0],[1,0,0],[0,1,0],[0.25,1,0],[0.5,1,0],[0.75,1,0],[1,1,0],[0,0.25,0],[0,0.5,0],[0,0.75,0],[1,0.25,0],[1,0.5,0],[1,0.75,0]];outlineConnect=0;fontColor=#232F3E;gradientColor=#60A337;gradientDirection=north;fillColor=#277116;strokeColor=#ffffff;dashed=0;verticalLabelPosition=bottom;verticalAlign=top;align=center;html=1;fontSize=12;fontStyle=0;aspect=fixed;shape=mxgraph.aws4.resourceIcon;resIcon=mxgraph.aws4.s3;" vertex="1" parent="1">
                    <mxGeometry x="130" y="220" width="78" height="78" as="geometry"/>
                </mxCell>
                <mxCell id="3" value="" style="sketch=0;aspect=fixed;html=1;points=[];align=center;image;fontSize=12;image=img/lib/mscae/Cache_Redis_Product.svg;" vertex="1" parent="1">
                    <mxGeometry x="220" y="224" width="83.33" height="70" as="geometry"/>
                </mxCell>
                <mxCell id="4" value="" style="sketch=0;aspect=fixed;html=1;points=[];align=center;image;fontSize=12;image=img/lib/mscae/Docker.svg;" vertex="1" parent="1">
                    <mxGeometry x="171" y="390" width="50" height="41" as="geometry"/>
                </mxCell>
                <mxCell id="6" value="" style="shape=image;verticalLabelPosition=bottom;verticalAlign=top;imageAspect=0;aspect=fixed;image=data:image/png,iVBORw0KGgoAAAANSUhEUgAAAMAAAADACAQAAAD41aSMAAAYQElEQVR4Ae3ddXhUZ94/4JMEiruULhWoCy1aF7ZeulbZuiFVWO/Wqb5vdaXFu7yl+1rdXReoG9QLwRsoHjQhPnP/ZHuRK1fDnDOTmckE9v7+3QLnc+Y5z3nsBLlNgZa66+tnLjXaeI+ZZoZCy61TDqDcOsvNM8ObHjbRaBf7qX66aqlAkMsVyM1qa0/HusK9Xva5hYqVi4sqrsxqi3zmRWNc4jh7af2vAMIrX1cDXGC8aeYokS4l5nrTGEMN1E3+vwL4YbWxp7OM85ZiNTKlxmpvu88ZemvtXwEI5GllP1d41CJl4rIhrsx8jxppP6235QDy7W6EpxSp1BgqLfaEYXaTv+0F0NHJJilUrbFVmWWyIbpuKwE018sobyiRS0r8wyi7yd+6A2jmAHf5SqVcVO1rt+lru60zgGYOco8FYnJZjSUmOFizrSuAAv1MtFRTsdREh2i+dQSQr497LBTXtCxztz3lNe0A8vR0pfnimqK4b1xpJ3lNNYDWTve+Ck1ZhbedqWXTCyDPfqZYb2uw0RT95DelADoaaba4rcdcI3VuGgHk6e9xFTKiSok1VlriW/PN21wLFFlmtY0qM5V7mccNlJ/rAbQx1CxpVK3USjM8bZybXOaXjnWwvfXSXZfN1cPu+jnKqYa71jhPmWGlUjXSKK7QMK1yOYBextogLWos97a/u9JJ9tZDOwVJvHa01cPeTnKVKd6xXLU02Wi8XrkZQJ7BpolpsNU+MMn5+qZl7iRfN32daax3rBDTYDHTDZaXawG0MlyRBolZ6U3XOlJneRnpGRziV561WJUGKnKpVrkUQDe3Wy9lcetNd53DtE/q0ufZTluddLOTfQ0y2LHf19EO0d8edtBFB601k7f5TtnfKC8oFtMAG9yuW64EsLOHVUlRzHx/c6Ku8iNe9Oa62N/JLnGT+z3jPd9YbJmV1li7uVZbYalvfWaax9znGuc6zl7ayhdo7XB3+VK1lFV52C65EMAgb4hJSaUPXGPfiOO/7fV1mls86VPf2iAuOZXWWOBd/+E3jtdLSzu70KtKpChumkGNG0CeI8yUknLvuVSPSI+XPZ3uXlMVqZYepWZ5zmhHO8BZHrJcimY6Ql5jBVDgFIVSUOFdl0S4+O3093uPW6BSJsSV+tRkw43wkiopmeWnChojgGbOsUTSasx0mR4ht01ze7ncM5aplnllZnlblRQtdo5m2Q6gwFArJG2Rf9M75OJ3NsTfzFOpyVhhaKq/gtQv/ypJKvGwAxP2dfLsYrg3bJAJlYoVme1TH3vXuz72kU98ZYHVDQ97VaoRpPZyea4VkhL3pQu1Sfg/3dXVvlAjfeJKfGemh91lpNMN1teuuulgOy101E4nPe3rKKe70v3esUSZFK1wrvzsBPBTiyVlo/+wn7yEd/7VvlAlPWps8JWHjXaq/XSMuES6ufb6OM/9vlEuBUucko0AjjBLUuYZlnAFYCcX+kiVdKjxradcb7CeWqfYP2xhF+d52EpJm+2ITAcwyExJqPaigxJciOaO9pxSDVdhlgcMtW+alnu2dLgpVkjSTIMyGcAupkrCBnfZIeHo9Z1WaqiYIg+50G4K0r6I70iP2iApr9s5UwF085CYyBYboWWCH/rpPhLXMCXec60DMriYra2LFEpCzEO6ZSKAlm5XJbJPDUlwR+7gdms0zHL/5dQs7LfIN8gbakRW5XYt0h1AnkttEFHcdAMFW6xDvK5a6mLmmehQLQRZqh39XbXI1hue7gB+rEhE1R7RO0HTc765UlfjG9fbJ+t777qboEJkRQanM4Bepomo2hTdE3Q5b7RGqqp94wa7yxM0QrVzk1KRTdUrXQG0NF5MJNX+bvsET/GJKqQmrsit9mjUHXatXGu9iGLGaJOOAPIMVxL58icYZO7tIVVSU2yygzQXNHJt51qlItpoaDoCGGR25MYnwd2/j1fEpWKT5xynhSAnqrXRykT0jf4NDaCTx0US898Jur/7mSYVMZ8aoX2O7SG/T7WIHtOhYQGMjBr3a3YSbKF287pUrPDXxnnkhlQ3f1cjkgojGxJAf3NF8mGC31oXj0pejWlO1EKQk7Wjl0U0S59UA2hpikjmOyzBcqhxqiRrpdv0FORw9fWxiKZonVoAZ9oogtXOlL/F4awbVEpOtalO1EyQ43WixSJZ7/RUAtjZWyIod1OCi3WhYslZ4TY/EjSBynOZUpG8r2fyAVyjWgSPJHjMH26OZMTN9AvNs3oRG7YWf5JIKv1eXnIB7OVrEXxqX8EWaif/kIwyD9ojq32Z81zQwDGl3t4XyVx9kgmgmb+IYFWCxq2t+8VFV+FGbbJ23+/sCu8q97mdBQ2qk3wnkrvlRw/gEMuEqnFbgtb/UmWSUeWeNAYQvvqiGmxyVIMPALhOpQgW6Bc1gGYmieAfCaYb+5kjWaX+mOH2P88O/lhn9UWNMwQNrO29JpIJmkUL4GBLhVrtxATNz0NSUeyiDI52djbcB6rUosa5ggbXCVaL4DsHRwlgOxOFirs3QfNzmXKpWeoXggxUB+d6Q5m6qHBcWibv/yySexSEB9DPYqG+sKdgC7WHz6XuG4elffzyWM8qU59F9hakofb0pQgW6BsWQJ7bxIWocFmCh9x9GuZDfdJ4TMuBHkjQQDyvrSAtdbkqoeLuVJA4gN19LdRrOicYvyvSMHFPp+ldeEe3WGjLqv0ubVFvb7oIvtQrcQC/VS3EOqcm6JTdq+FiHtRB0KBq7yIfqZbIN3YTpK1Ot0GoKr9KFEBXU4X6zwQ/24EWS4dKN4cPRYcseNwU7T0mbdXWkyJ4XcctBzBEiRArE7y6NPdX6bLBiBRHanq503Lhvkr7wMdPrBNqo5O3FEC+yVHu/+0SzHwVSp9vnZjCXXiuD8WEK/Nr+WmfrHxKBJPk1R/A7mYJsdaxgi3WKFXS6TP7C5Ko/U2xUTTPZeT0mdOUCVVo9/oDGKZaiFcSPBw7ekm6PR+5P9TZb8wVF81cB2do/dw7QlUbUV8ArT0hRLlzEu7cWCPdaozXPkJv/1DPqBBVqZEZm+q/XI1QT2n1wwD6WCzE+wn39l4nLv3K/U5ByMqZ31uYVKhjtRVkqHY3R6gifX4YwEhVEqp2dcIZ/BdkxgqnJHjvPsiTKkQX94JdMjrcPU6oaperG4A2HhFiScJH4n4WyJQvHLiFdv93FkrOJ/YRZLSOsU6oR7SpG0Bv84X434S7r36uUua8Yscf3GkHe0al5Mzy47SNMnXWbAu3xTShFtmjbgBn2iShsoQP4MANMilugjZ1etyXWyhZC52Yxj7/nVscyr5eXIgyZ9UN4D4hZumVcGLu7zKr1K8291z2NUWJZC13mrw0BvC0mVtYknCYFUKNUxuA7t4WYkrC6cJW3pFpSxwnsJ3TfC55q4xQkNYD0F7Hy3rWOxD4plDTda0NYKDVEqpyVsgSj69k3oeOc5c1krfU8DRvaurqQ8SM07beLnmo1QbUBjBUjYTm2DOk9ztf5sUUq5K8BU5J+56yHcwBm+odUzraWiFqXFAbwBghng3ZiXuAIrlqtpPlZeCFazlgUT09qx5mCDX++wC09qYQV4euFV4sN33q6IwMOwy2DsDUH4xY5XlQqKna/jOAfcyTUJmjBQmrj2/lnriXHZChUZ+hygHE6pnaGSZGhHY9EDjBJgl9pXfoyZWFck2ZBzI46HCjWqx0gqBOHWSNECWO/WcAlwjxtJahnbKZckuxG3XI4Le4/ktdL+siqC09fSzU5YJAgTFC3BnhjJ3n5ZJ5zsno16i29566KlxR99XUI0LdqyDQ0osSqnB+hFWXt8sVcVMdKsho9bcydLHareJCvKRVoKvPJLTWQEFo/VK1XFBisp0FGa6LVNcT/N113jbOVi7E57oH+lkkodl2EoRWHws1viV+k5VF7pPVZ0GdAftB1gmxUN/AT62W0Os6RXosPahxxb3n2Kxs7utphvrdVdvptYs5QhT7WeBiZRJ6MOLj7OdKGrnp2VWQlTrGBvWbXzvXqIs3hSh3SWC0EP8eeXzwFY1lrmHaCLJUt9iy22u/VOAhoUYHJkqoxihBxDpbieyr9JRBWTzQoIsPEj5Xa+fu/izUuMDDEtrknCTGyJ+XbYv8QWdBFutnNtqyytrTylwr1KOBNyW01glJtY5LZU+FZxyqIMsnBk2Q2HObZwiuUC3E1MAMCa1wYFJT1aNVy46vXaqTIMsV3t1etfk18CylQswIzJPQUn2SXJz3nMxbZax9BI1QV6mRWNytm/cQrxOiMLBcQt/qnfQ9MkMmlXnB8VoKGqF6+lC4d20vEDjSaiGWB2EhLdAjhW2bi2RGtbdcpIugkWqkKuHWOuL7d+HlQqwLlEtoXgr/3HynmC/dqnxslO0FjVZdTRdF3Ojv5wmXClEekP4AAnmO8bH0KfOWyxv9GJvLVYjmZW2jBSDlAMJrX0+q0HDFnnWhroJGrh/5SFQL7BstgHiEALo24Cd7vW+lrtI3Jjpeu+y956Zp/0+ln6crgEUNGl0vcJj/VixZ1eZ73HC75czRZfv4TDJujdwElUuoyO4N/hbFj91vrirhaqwww2Tn2TtDU4qpnwYRl4xn5RtguRDlod3QpfqmZTH3ni403nuWWKdKXK0qG600z2vGuszhuijIwQP6VkvO57o7wurwbmhYSCsdksb7qKO9DHGp691tjDH+5AaXO8WBdtAuZ09K7OZFyfrOAMdZK8SyQKGE1jo+Y8cn5QmaQBW4VqVklfupXygRYl7oYFyJXwq26RrsW6m4zPDw4GYEpkmo0gjBNlw9vSk1t7lOqDcDjwnxR8E2Wy3dIyY1j5ks1MOBcULcLthGK89F1knVOsVCTYwwKT9Z8200gIPNl2E3BC5VLqHntRdsg7WH6TKszMWBnymW0Bd6Cra56uQhGbfaTwN9LZTQKvsItrFq7z6VMm6hfoHuPpdQqZ8Itqlq7kYVsuAzXQOtvCyhGlduY5f/MmtlxYtaBgrcJ8R/yd+GLv+limXJGAWBwBVCfLzNPIabudgqWXOJIBA4VomE1jtkm7n8K6VHhbgQJY77ZwB7miOhuFHbSOOzUnps8rWYEHPt9c8A2pomxJNaCLbqauG3iqXLG94V6g2t/xlAYEJ4WHtv5f3+26yXLqtcbY5QY2rPirhAjYRqtupB6a7GqJA+kw1VKUSNobUBDFAsxPNaC7bK2svjqqTPfAe7T6hVBtYG0M10IVY6fKsccD7CO9Kp0tV28oVQb+tWG0BgnFB3yN/qHrxnmye93tbdz20Q6t66Z8adpUyI2VvZg7iz0dZIr2InyzdGqE3OqBvAnhYJEXOLPMFWUvt5XLl0u0eBXmYLNV/vugG08ahQhVvJb6CF03wh/d6zo8BwFUI9onVtAJF3lMXdKmjy9SP3WCP9lhsi0M5TQlUZWd/h3UVCzTdA0ISrwDGmqZZ+Fa7XXODIKOEW2e+HAbSKEh1TtBI00erhZktkxmO6CRQYK4IntP5hAIERqoVa72xBE6zt/MxbqmXGp/oIBPY1X6hqwwT1BbCHwsgfFmlSla+P+xXLlBWbJ22vEhNqlt3qDyDPJJE8qnMTetft7jdmi8uUUqMUCAR6+VwEk+XXH0DgZBtFUOnWJrJYq5VTTVMucyr9RTuBQOBKNUKVGCLYUgAdvSGSYsMUCHK6WjvBI9bLrId0FiRz//9D10SfMvyVKpEsd7a8HH7VOtLD1si0V+26eTrzZtVCVRslSBRAL1+K6Dtn5eTwXFvHesBKmTfdXoLva4CFIvjKbokDKHCXePQILsixbUVtnOhha8Rl3pdqX0qbGwdRhhLyEgcQ6GuByFa5PGdezLq5wDOKZcdXdc5MP1GxCBbrJwgLoMCfJKHUn/Vo9Bb/AKN9pFy2fFnnk6bdvSiSCbZL+qP+4aq95NBGehoU2MGp/stiMdnzpSPr/B2uU5nGj/oHmpkoSQtdpXuW3247OtLtZiiTXe84RN37daFIJmoWLYBAPwslqcpLTsnKVo48nQx2vemKxWRX3Ov6qPvkeUoky2pzCw8g391SsMGLTstgCM3t6mfu9r7V4rKvypP2qNtYRG1+4u7WLHoAgT7mSkmpV11sV9ul9Z12F0e5ypO+Ua6xlPnrD06OOckykXxtT0EyAeT5vUopqjTHZOfqrbW8lNv4Nrrq43S3ecLXSsU0ppWu0u4Hb63vi6Rqy1ssEu1Qfl+DlFngcdc71f46a6GZ/IQXvJnttLGDAYa41J2e8InljX7hga/98gctSHsPiotkup2SDyBwuvXSoFSRz71kijv80RXOc5raOtswl7nanf7maR+a7Tvr1cgdNV50YD1dxetUiGSjMwWpBNDag7Z5a9xu+3p+r+daJaIHtEwtgEAfs0USV6ra1iZmptPr7U4MViSiOfoJUg0gMEqFSAq9aoOtyQYTt9B16e9DEZUZKWhIAB08LpIqT7jaV+K2BnGfOXcLw4z7eU9kj+nUsAACA3wTNYJJjjLWOk3dSmPsIai3dvG6yGYbJGhoAIFhNkaNYIxuhnhNuaaqzItO2OKM904eFxPRRsPkpSOANsaKRY1grA66GWmGmKamyicJj8TfOZnLHzNOS0E6Agj0Mk1Ele7XVWBX/+5bcU1F3CzX2DnBLbu3l8VENlUvQboCCPxYkYiqTdFDoJkD/MlCcbkubqE/2Sdhe9HPO5JQZLAgnQEEhlsfPYKn7CsQyHeAO8xSKVdV+cL19leQcJjkSJ9IwgaXykt3AC3coUpkHzhI/vd//V39xsc2yTUl3vNrO4bM5jVzlvnJZXp79O9LJDfr/ZCYyAqdsXkAK8+PnOERK8Tkgphl/tNpuoZOpbZ1pRWSEPOQboJMBBDY2RuSsMINOtYZXDrQTT5QojGt87bRDtAi0j94kjJJmWYXQaYCCAwyUxLKPWLfH3yL93h/9pENsiturffd4WhdIs5IHOMtMUmZaZAgkwEEjlAoKZ86S4t61iyf5HbvWKFKplVaarobHatL1GejTn5riSTNcoQg0wEETrFEUta4p97fZYGODnKF//CJNRkIolKxD/zNJfrroCCJaf++HlMuSYv9VJCNAPKda4WkxLzrDK222MHq4WCXGONVX1mrRlyq4mqs8bUX3etiA3RPena6k18rFJekFc6Vn50AAgWGWiVJ60ywf0gT0F5vBznL1f7mVZ8o9J11qiRSab0lCn3kZZNd7RSD9NY2xXUXR3pauaStMjS19fqB1CNYIWlzXGWHiM1AM93sYZBj/MK5RrraaLe7Y3Pd5EqXOd/PHWOgPXTRTF6DVtnt4x4rpGBF2OVPfwCBZs6xWNKqvOUcnVJckpWvtvLSutirhysViknBEudoJsh2AIECPzVbCkq95iydcmj76iXeUyUlhU5pyGahhp/2MlNKSrzubN0bff/kbq7wnnIpmumIhv0UAw2tQaaJSUmZd/zG7po30ga+/v7NLDVSFPNG+GtX5gMI7OIhlVJUrdB4x+osL4v3fQ9n+G/LxKWsysN2FuRCAIGubrehYYME01xjgDYZjiFPB4Pd1vBF7evdrpsgVwIItHKpIg0Ss9SLfu8o3TIQQ4GdnOxGb6djZXWR4enamZXOm2tw+NMgXFyxj01wrn66yU/DkvaeDnGJ//GFEmkQM83g9N0hgXRWL+NtlBY1lnvHFFcZYu8kP/PWXEc99XGWWz3iE+vFpckGY/USpK/S37UYplBc2tQotdIMz5jkZiOd4ViD7GdX3XX5vn5kV30cboiz/drtJnvZl1YpF5dWswzVRpDLAQTyDfSYMhlRrdQay32nyHzzvq+FinxnlXU2qZEh5R7XL/0Pp0wdSDjSHHFbi7hZRuooSH9lrqvdzwM22hqsN8V+meofZ/YzdGd6W6WmrML7Ts/kqc2Z3lG6s2t8I64pipvr93pm9t0wG9t69/QXyzQtcQvcrU/mDwDI1scpDjHRd5qK70zQLzsnUmXzAy0Hm2CxGrksZoF7HJS9U3iyfXZkX7f6WrVcVOkrdzogu0cgNc4cyCj/UCKXbPS6UXplf2qi8b4aMsRks1RpbNUKTXKyjoLGqMaeDxzmCUUqNYZKRZ4ywu6NefRdLpwuuZ+RHjXfJnHZELfJIo+63H5aNfbRj7lzyGdvZ7jX21apkSk1VptunDPtoY0gFyrXDnnuZqChxnjDPKXSZaNCU413gQGJtgT8K4Daam0fx7vEfV7wmYVWKxMXVVy5Ygt97iX3utyx9tRWkIuV+19caKmrfn5qhNEmetibZphnmXXKERdHuXWWKzTDVI8ZZ7RL/Exf3bXM9ROW/w+cbP2W3/JoQgAAAABJRU5ErkJggg==" vertex="1" parent="1">
                    <mxGeometry x="500" y="164" width="192" height="192" as="geometry"/>
                </mxCell>
            </root>
        </mxGraphModel>
    </diagram>
</mxfile>
